<svg viewBox="0 0 1200 800" xmlns="http://www.w3.org/2000/svg">
  <defs>
    <linearGradient id="grad1" x1="0%" y1="0%" x2="100%" y2="100%">
      <stop offset="0%" style="stop-color:#39ff14;stop-opacity:0.1" />
      <stop offset="100%" style="stop-color:#ff006e;stop-opacity:0.1" />
    </linearGradient>
  </defs>
  
  <!-- Background -->
  <rect width="1200" height="800" fill="#050505"/>
  <rect width="1200" height="800" fill="url(#grad1)"/>
  
  <!-- Grid lines -->
  <g stroke="#1a1a1a" stroke-width="1">
    <line x1="0" y1="100" x2="1200" y2="100"/>
    <line x1="0" y1="200" x2="1200" y2="200"/>
    <line x1="0" y1="300" x2="1200" y2="300"/>
    <line x1="0" y1="400" x2="1200" y2="400"/>
    <line x1="0" y1="500" x2="1200" y2="500"/>
    <line x1="0" y1="600" x2="1200" y2="600"/>
    <line x1="0" y1="700" x2="1200" y2="700"/>
    <line x1="100" y1="0" x2="100" y2="800"/>
    <line x1="300" y1="0" x2="300" y2="800"/>
    <line x1="500" y1="0" x2="500" y2="800"/>
    <line x1="700" y1="0" x2="700" y2="800"/>
    <line x1="900" y1="0" x2="900" y2="800"/>
    <line x1="1100" y1="0" x2="1100" y2="800"/>
  </g>
  
  <!-- Central dashboard mockup -->
  <rect x="300" y="150" width="600" height="500" rx="12" fill="#0a0a0a" stroke="#333" stroke-width="3"/>
  
  <!-- Window header -->
  <rect x="300" y="150" width="600" height="50" rx="12" fill="#1a1a1a"/>
  <rect x="300" y="190" width="600" height="10" fill="#1a1a1a"/>
  <circle cx="330" cy="175" r="8" fill="#ff006e"/>
  <circle cx="355" cy="175" r="8" fill="#ffbe0b"/>
  <circle cx="380" cy="175" r="8" fill="#39ff14"/>
  
  <!-- Sidebar -->
  <rect x="300" y="200" width="150" height="450" fill="#0d0d0d"/>
  <rect x="320" y="230" width="110" height="10" rx="2" fill="#39ff14"/>
  <rect x="320" y="260" width="80" height="6" rx="1" fill="#444"/>
  <rect x="320" y="280" width="90" height="6" rx="1" fill="#444"/>
  <rect x="320" y="320" width="110" height="6" rx="1" fill="#ff006e"/>
  <rect x="320" y="340" width="70" height="6" rx="1" fill="#444"/>
  <rect x="320" y="360" width="85" height="6" rx="1" fill="#444"/>
  <rect x="320" y="400" width="60" height="6" rx="1" fill="#00d9ff"/>
  
  <!-- Main content -->
  <!-- Stats row -->
  <rect x="470" y="230" width="150" height="80" rx="6" fill="#111" stroke="#333"/>
  <text x="490" y="270" font-family="Bebas Neue, sans-serif" font-size="32" fill="#39ff14">50K+</text>
  <text x="490" y="295" font-family="Archivo, sans-serif" font-size="10" fill="#666">USERS</text>
  
  <rect x="640" y="230" width="150" height="80" rx="6" fill="#111" stroke="#333"/>
  <text x="660" y="270" font-family="Bebas Neue, sans-serif" font-size="32" fill="#ff006e">10M+</text>
  <text x="660" y="295" font-family="Archivo, sans-serif" font-size="10" fill="#666">ACTIONS</text>
  
  <rect x="810" y="230" width="70" height="80" rx="6" fill="#111" stroke="#333"/>
  <text x="825" y="270" font-family="Bebas Neue, sans-serif" font-size="32" fill="#00d9ff">40%</text>
  <text x="825" y="295" font-family="Archivo, sans-serif" font-size="10" fill="#666">SAVED</text>
  
  <!-- Chart area -->
  <rect x="470" y="330" width="410" height="200" rx="6" fill="#080808" stroke="#222"/>
  
  <!-- Animated bars -->
  <rect x="500" y="450" width="30" height="60" fill="#39ff14" opacity="0.9"/>
  <rect x="550" y="420" width="30" height="90" fill="#39ff14" opacity="0.9"/>
  <rect x="600" y="380" width="30" height="130" fill="#ff006e"/>
  <rect x="650" y="440" width="30" height="70" fill="#39ff14" opacity="0.7"/>
  <rect x="700" y="400" width="30" height="110" fill="#00d9ff" opacity="0.8"/>
  <rect x="750" y="370" width="30" height="140" fill="#39ff14"/>
  <rect x="800" y="430" width="30" height="80" fill="#ff006e" opacity="0.8"/>
  
  <!-- Line graph overlay -->
  <polyline points="515,380 565,350 615,320 665,340 715,300 765,280 815,290" 
            fill="none" stroke="#00d9ff" stroke-width="3"/>
  <circle cx="515" cy="380" r="4" fill="#00d9ff"/>
  <circle cx="565" cy="350" r="4" fill="#00d9ff"/>
  <circle cx="615" cy="320" r="4" fill="#00d9ff"/>
  <circle cx="665" cy="340" r="4" fill="#00d9ff"/>
  <circle cx="715" cy="300" r="4" fill="#00d9ff"/>
  <circle cx="765" cy="280" r="4" fill="#00d9ff"/>
  <circle cx="815" cy="290" r="4" fill="#00d9ff"/>
  
  <!-- Bottom toolbar -->
  <rect x="470" y="550" width="410" height="30" rx="4" fill="#151515"/>
  <rect x="490" y="562" width="60" height="6" rx="1" fill="#333"/>
  <rect x="570" y="562" width="40" height="6" rx="1" fill="#444"/>
  
  <!-- AI Badge -->
  <circle cx="850" cy="565" r="12" fill="#39ff14"/>
  <text x="843" y="569" font-family="Archivo, sans-serif" font-size="8" fill="#000" font-weight="bold">AI</text>
  
  <!-- Floating elements -->
  <g opacity="0.6">
    <rect x="100" y="200" width="80" height="60" rx="4" fill="#111" stroke="#39ff14" stroke-width="1"/>
    <rect x="120" y="220" width="40" height="4" fill="#39ff14"/>
    <rect x="120" y="230" width="30" height="4" fill="#444"/>
    <rect x="120" y="240" width="50" height="4" fill="#444"/>
  </g>
  
  <g opacity="0.6">
    <rect x="950" y="150" width="100" height="80" rx="4" fill="#111" stroke="#ff006e" stroke-width="1"/>
    <rect x="970" y="175" width="60" height="4" fill="#ff006e"/>
    <rect x="970" y="190" width="40" height="4" fill="#444"/>
    <rect x="970" y="205" width="50" height="4" fill="#444"/>
  </g>
  
  <!-- Corner decorations -->
  <g stroke="#39ff14" stroke-width="3" fill="none">
    <path d="M 50 100 L 50 50 L 100 50"/>
    <path d="M 1100 50 L 1150 50 L 1150 100"/>
    <path d="M 50 700 L 50 750 L 100 750"/>
    <path d="M 1100 750 L 1150 750 L 1150 700"/>
  </g>
  
  <!-- Z letters for branding -->
  <text x="100" y="650" font-family="Bebas Neue, sans-serif" font-size="120" fill="#1a1a1a">Z</text>
  <text x="1050" y="200" font-family="Bebas Neue, sans-serif" font-size="100" fill="#1a1a1a">Z</text>
</svg>
